<svg width="19" height="22" viewBox="0 0 19 22" fill="none" xmlns="http://www.w3.org/2000/svg">
<path d="M9.89551 0.505859L9.90769 0.00597078L9.9016 0.00589654L9.89551 0.505859ZM18.3301 2.37695L18.8301 2.37695V2.06184L18.5458 1.92589L18.3301 2.37695ZM9.70215 20.7119L9.89518 21.1733L9.90637 21.1683L9.70215 20.7119ZM9.41504 20.832L9.235 21.2985L9.42255 21.3709L9.60802 21.2933L9.41504 20.832ZM0.5 2.37695L0.284272 1.92589L-6.55651e-07 2.06184L0 2.37695L0.5 2.37695ZM9.41504 0.5L9.42114 0H9.41504L9.41504 0.5ZM9.89551 0.505859L9.88332 1.00571C12.2984 1.06457 15.4991 1.57724 18.1144 2.82802L18.3301 2.37695L18.5458 1.92589C15.765 0.595942 12.4142 0.0670998 9.90769 0.00600782L9.89551 0.505859ZM18.3301 2.37695L17.8301 2.37695C17.8301 13.8437 12.3439 18.982 9.49793 20.2555L9.70215 20.7119L9.90637 21.1683C13.1609 19.712 18.8301 14.1818 18.8301 2.37695L18.3301 2.37695ZM9.70215 20.7119L9.50917 20.2507L9.22206 20.3708L9.41504 20.832L9.60802 21.2933L9.89512 21.1732L9.70215 20.7119ZM9.41504 20.832L9.59508 20.3656C6.84716 19.305 1.00002 14.2168 1 2.37695L0.5 2.37695L0 2.37695C2.53618e-05 14.5598 6.03977 20.0652 9.235 21.2985L9.41504 20.832ZM0.5 2.37695L0.715728 2.82802C3.50653 1.49329 6.96206 1 9.41504 1L9.41504 0.5L9.41504 0C6.86325 2.5332e-06 3.24893 0.508004 0.284272 1.92589L0.5 2.37695ZM9.41504 0.5L9.40894 0.999963L9.88941 1.00582L9.89551 0.505859L9.9016 0.00589654L9.42114 3.71635e-05L9.41504 0.5Z" fill="white"/>
</svg>
