<svg id="Ebene_1" data-name="Ebene 1" xmlns="http://www.w3.org/2000/svg" viewBox="0 0 200 120"><defs><style>.cls-1{fill:#1d1d1b;opacity:0.1;}</style></defs><path class="cls-1" d="M163.32,120c0-.21,0-.43,0-.66,0-6.53-7.31-17-8.87-19s-13.05-5.22-15.14-5.22-15.39-3.92-16.18-4.44-10.17-5.74-11-7.57.8-15.13,0-17.22,2.1-3.39,3.14-3.39,3.4-5.74,4.18-8.35-.52-5.75-1.83-6.27-2.35.79-1.82,0,0-10.7-1.31-18S104.62,16,104.62,16,94.18,11.82,88.7,13.13s-11.22,7-15.14,11.22-2.09,18-2.09,18,2.87,9.4,1.83,8.88-1.83.26-2.87.52,0,6.26.26,7.83,5.22,6,5.74,8.09,2.35,8.35,3.13,9.65,1.31,6.79.79,9.13-9.92,8.09-9.92,8.09-7.31,6-10.44,7-7.83,1-15.13,4.44c-4.66,2.16-7,8.66-8.19,14Z"/></svg>