<svg width="16" height="16" viewBox="0 0 16 16" fill="none" xmlns="http://www.w3.org/2000/svg">
<path d="M15.5307 4.46932L13.5307 2.46932C13.3898 2.32842 13.1987 2.24927 12.9994 2.24927C12.8002 2.24927 12.6091 2.32842 12.4682 2.46932C12.3273 2.61021 12.2481 2.80131 12.2481 3.00057C12.2481 3.19983 12.3273 3.39092 12.4682 3.53182L13.1875 4.24994H12C11.3516 4.27069 10.714 4.42159 10.125 4.69369C9.21941 5.11182 8.07441 6.00619 7.76191 7.87619C7.59379 8.88682 7.10066 9.58869 6.29754 9.96307C6.08254 10.0619 5.85689 10.1357 5.62504 10.1831C5.42821 9.55 5.00932 9.00935 4.44548 8.66064C3.88163 8.31194 3.2108 8.17866 2.55648 8.28534C1.90216 8.39203 1.30841 8.7315 0.884539 9.24125C0.460667 9.751 0.235211 10.3967 0.249679 11.0595C0.264147 11.7223 0.517565 12.3576 0.963278 12.8484C1.40899 13.3391 2.01699 13.6524 2.67534 13.7304C3.33369 13.8084 3.99807 13.646 4.54616 13.273C5.09425 12.9 5.48915 12.3416 5.65816 11.7006C6.07197 11.6399 6.47564 11.5234 6.85816 11.3543C7.76566 10.9512 8.91504 10.0631 9.23879 8.12307C9.40004 7.15557 9.89379 6.46744 10.7069 6.07619C11.1126 5.88427 11.5519 5.77344 12 5.74994H13.1875L12.4675 6.46932C12.3266 6.61021 12.2475 6.80131 12.2475 7.00057C12.2475 7.19983 12.3266 7.39092 12.4675 7.53182C12.6084 7.67271 12.7995 7.75187 12.9988 7.75187C13.198 7.75187 13.3891 7.67271 13.53 7.53182L15.53 5.53182C15.6 5.46218 15.6555 5.37942 15.6934 5.28828C15.7313 5.19714 15.7509 5.09941 15.7509 5.0007C15.751 4.90199 15.7316 4.80424 15.6938 4.71305C15.656 4.62186 15.6005 4.53904 15.5307 4.46932ZM3.00004 12.2499C2.75281 12.2499 2.51113 12.1766 2.30557 12.0393C2.10001 11.9019 1.9398 11.7067 1.84519 11.4783C1.75058 11.2499 1.72582 10.9986 1.77405 10.7561C1.82229 10.5136 1.94134 10.2909 2.11615 10.1161C2.29097 9.94124 2.5137 9.82219 2.75617 9.77396C2.99865 9.72573 3.24998 9.75048 3.47839 9.84509C3.7068 9.9397 3.90202 10.0999 4.03937 10.3055C4.17672 10.511 4.25004 10.7527 4.25004 10.9999C4.25004 11.3315 4.11834 11.6494 3.88392 11.8838C3.6495 12.1182 3.33156 12.2499 3.00004 12.2499Z" fill="white"/>
</svg>
