<svg width="16" height="3" viewBox="0 0 16 3" fill="none" xmlns="http://www.w3.org/2000/svg">
<path d="M9 1.25C9 1.49723 8.92669 1.7389 8.78934 1.94446C8.65199 2.15003 8.45676 2.31024 8.22835 2.40485C7.99995 2.49946 7.74861 2.52421 7.50614 2.47598C7.26366 2.42775 7.04093 2.3087 6.86612 2.13388C6.6913 1.95907 6.57225 1.73634 6.52402 1.49386C6.47579 1.25139 6.50054 1.00005 6.59515 0.771646C6.68976 0.543238 6.84998 0.348015 7.05554 0.210663C7.2611 0.0733111 7.50277 0 7.75 0C8.08152 0 8.39946 0.131696 8.63389 0.366117C8.86831 0.600537 9 0.918479 9 1.25ZM1.25 0C1.00277 0 0.761099 0.0733111 0.555538 0.210663C0.349976 0.348015 0.189761 0.543238 0.0951511 0.771646C0.000541605 1.00005 -0.0242126 1.25139 0.024019 1.49386C0.0722505 1.73634 0.191302 1.95907 0.366117 2.13388C0.540933 2.3087 0.763661 2.42775 1.00614 2.47598C1.24861 2.52421 1.49995 2.49946 1.72836 2.40485C1.95676 2.31024 2.15199 2.15003 2.28934 1.94446C2.42669 1.7389 2.5 1.49723 2.5 1.25C2.5 0.918479 2.3683 0.600537 2.13388 0.366117C1.89946 0.131696 1.58152 0 1.25 0ZM14.25 0C14.0028 0 13.7611 0.0733111 13.5555 0.210663C13.35 0.348015 13.1898 0.543238 13.0951 0.771646C13.0005 1.00005 12.9758 1.25139 13.024 1.49386C13.0723 1.73634 13.1913 1.95907 13.3661 2.13388C13.5409 2.3087 13.7637 2.42775 14.0061 2.47598C14.2486 2.52421 14.4999 2.49946 14.7284 2.40485C14.9568 2.31024 15.152 2.15003 15.2893 1.94446C15.4267 1.7389 15.5 1.49723 15.5 1.25C15.5 0.918479 15.3683 0.600537 15.1339 0.366117C14.8995 0.131696 14.5815 0 14.25 0Z" fill="black"/>
</svg>
