<svg width="16" height="16" viewBox="0 0 16 16" fill="none" xmlns="http://www.w3.org/2000/svg">
<path d="M13.5 5.25H10.75V2.5C10.75 2.16848 10.6183 1.85054 10.3839 1.61612C10.1495 1.3817 9.83152 1.25 9.5 1.25H6.5C6.16848 1.25 5.85054 1.3817 5.61612 1.61612C5.3817 1.85054 5.25 2.16848 5.25 2.5V5.25H2.5C2.16848 5.25 1.85054 5.3817 1.61612 5.61612C1.3817 5.85054 1.25 6.16848 1.25 6.5V9.5C1.25 9.83152 1.3817 10.1495 1.61612 10.3839C1.85054 10.6183 2.16848 10.75 2.5 10.75H5.25V13.5C5.25 13.8315 5.3817 14.1495 5.61612 14.3839C5.85054 14.6183 6.16848 14.75 6.5 14.75H9.5C9.83152 14.75 10.1495 14.6183 10.3839 14.3839C10.6183 14.1495 10.75 13.8315 10.75 13.5V10.75H13.5C13.8315 10.75 14.1495 10.6183 14.3839 10.3839C14.6183 10.1495 14.75 9.83152 14.75 9.5V6.5C14.75 6.16848 14.6183 5.85054 14.3839 5.61612C14.1495 5.3817 13.8315 5.25 13.5 5.25ZM13.25 9.25H10C9.80109 9.25 9.61032 9.32902 9.46967 9.46967C9.32902 9.61032 9.25 9.80109 9.25 10V13.25H6.75V10C6.75 9.80109 6.67098 9.61032 6.53033 9.46967C6.38968 9.32902 6.19891 9.25 6 9.25H2.75V6.75H6C6.19891 6.75 6.38968 6.67098 6.53033 6.53033C6.67098 6.38968 6.75 6.19891 6.75 6V2.75H9.25V6C9.25 6.19891 9.32902 6.38968 9.46967 6.53033C9.61032 6.67098 9.80109 6.75 10 6.75H13.25V9.25Z" fill="white"/>
</svg>
