<svg width="16" height="16" viewBox="0 0 16 16" fill="none" xmlns="http://www.w3.org/2000/svg">
<path d="M8 1.25C6.66498 1.25 5.35994 1.64588 4.2499 2.38758C3.13987 3.12928 2.27471 4.18349 1.76382 5.41689C1.25292 6.65029 1.11925 8.00749 1.3797 9.31686C1.64015 10.6262 2.28303 11.829 3.22703 12.773C4.17104 13.717 5.37377 14.3598 6.68314 14.6203C7.99252 14.8808 9.34971 14.7471 10.5831 14.2362C11.8165 13.7253 12.8707 12.8601 13.6124 11.7501C14.3541 10.6401 14.75 9.33502 14.75 8C14.748 6.2104 14.0362 4.49466 12.7708 3.22922C11.5053 1.96378 9.78961 1.25199 8 1.25ZM8 13.25C6.96165 13.25 5.94662 12.9421 5.08326 12.3652C4.2199 11.7883 3.547 10.9684 3.14964 10.0091C2.75228 9.04978 2.64831 7.99418 2.85088 6.97578C3.05345 5.95738 3.55347 5.02191 4.28769 4.28769C5.02192 3.55346 5.95738 3.05345 6.97578 2.85088C7.99418 2.6483 9.04978 2.75227 10.0091 3.14963C10.9684 3.54699 11.7883 4.2199 12.3652 5.08326C12.9421 5.94661 13.25 6.96165 13.25 8C13.2485 9.39193 12.6949 10.7264 11.7107 11.7107C10.7264 12.6949 9.39193 13.2485 8 13.25ZM10.5306 6.96938C10.6715 7.11027 10.7507 7.30137 10.7507 7.50063C10.7507 7.69988 10.6715 7.89098 10.5306 8.03187C10.3897 8.17277 10.1986 8.25193 9.99938 8.25193C9.80012 8.25193 9.60902 8.17277 9.46813 8.03187L8.75 7.3125V10.5C8.75 10.6989 8.67098 10.8897 8.53033 11.0303C8.38968 11.171 8.19892 11.25 8 11.25C7.80109 11.25 7.61032 11.171 7.46967 11.0303C7.32902 10.8897 7.25 10.6989 7.25 10.5V7.3125L6.53063 8.0325C6.38973 8.1734 6.19864 8.25255 5.99938 8.25255C5.80012 8.25255 5.60902 8.1734 5.46813 8.0325C5.32723 7.8916 5.24808 7.70051 5.24808 7.50125C5.24808 7.30199 5.32723 7.1109 5.46813 6.97L7.46813 4.97C7.53781 4.90008 7.6206 4.8446 7.71176 4.80675C7.80293 4.76889 7.90067 4.74941 7.99938 4.74941C8.09809 4.74941 8.19583 4.76889 8.28699 4.80675C8.37816 4.8446 8.46095 4.90008 8.53063 4.97L10.5306 6.96938Z" fill="white"/>
</svg>
