<svg width="16" height="16" viewBox="0 0 16 16" fill="none" xmlns="http://www.w3.org/2000/svg">
<path d="M8 1.25C6.66498 1.25 5.35994 1.64588 4.2499 2.38758C3.13987 3.12928 2.27471 4.18349 1.76382 5.41689C1.25292 6.65029 1.11925 8.00749 1.3797 9.31686C1.64015 10.6262 2.28303 11.829 3.22703 12.773C4.17104 13.717 5.37377 14.3598 6.68314 14.6203C7.99252 14.8808 9.34971 14.7471 10.5831 14.2362C11.8165 13.7253 12.8707 12.8601 13.6124 11.7501C14.3541 10.6401 14.75 9.33502 14.75 8C14.748 6.2104 14.0362 4.49466 12.7708 3.22922C11.5053 1.96378 9.78961 1.25199 8 1.25ZM8 13.25C6.96165 13.25 5.94662 12.9421 5.08326 12.3652C4.2199 11.7883 3.547 10.9684 3.14964 10.0091C2.75228 9.04978 2.64831 7.99418 2.85088 6.97578C3.05345 5.95738 3.55347 5.02191 4.28769 4.28769C5.02192 3.55346 5.95738 3.05345 6.97578 2.85088C7.99418 2.6483 9.04978 2.75227 10.0091 3.14963C10.9684 3.54699 11.7883 4.2199 12.3652 5.08326C12.9421 5.94661 13.25 6.96165 13.25 8C13.2485 9.39193 12.6949 10.7264 11.7107 11.7107C10.7264 12.6949 9.39193 13.2485 8 13.25ZM10.5306 7.96938C10.6005 8.03905 10.656 8.12185 10.6939 8.21301C10.7317 8.30417 10.7512 8.40191 10.7512 8.50062C10.7512 8.59934 10.7317 8.69707 10.6939 8.78824C10.656 8.8794 10.6005 8.9622 10.5306 9.03187L8.53063 11.0319C8.46095 11.1018 8.37816 11.1573 8.28699 11.1951C8.19583 11.233 8.09809 11.2525 7.99938 11.2525C7.90067 11.2525 7.80293 11.233 7.71176 11.1951C7.6206 11.1573 7.53781 11.1018 7.46813 11.0319L5.46813 9.03187C5.39836 8.96211 5.34302 8.87929 5.30527 8.78814C5.26751 8.69698 5.24808 8.59929 5.24808 8.50062C5.24808 8.40196 5.26751 8.30427 5.30527 8.21311C5.34302 8.12196 5.39836 8.03914 5.46813 7.96938C5.53789 7.89961 5.62072 7.84427 5.71187 7.80651C5.80302 7.76876 5.90072 7.74932 5.99938 7.74932C6.09804 7.74932 6.19574 7.76876 6.28689 7.80651C6.37804 7.84427 6.46086 7.89961 6.53063 7.96938L7.25 8.6875V5.5C7.25 5.30109 7.32902 5.11032 7.46967 4.96967C7.61032 4.82902 7.80109 4.75 8 4.75C8.19892 4.75 8.38968 4.82902 8.53033 4.96967C8.67098 5.11032 8.75 5.30109 8.75 5.5V8.6875L9.46938 7.9675C9.53916 7.89789 9.62197 7.84272 9.71309 7.80513C9.8042 7.76755 9.90183 7.7483 10.0004 7.74847C10.099 7.74865 10.1965 7.76825 10.2875 7.80615C10.3785 7.84405 10.4611 7.89952 10.5306 7.96938Z" fill="white"/>
</svg>
