<svg width="26" height="26" viewBox="0 0 26 26" fill="none" xmlns="http://www.w3.org/2000/svg">
<path d="M21.7656 3.73439C20.5817 2.55045 19.1761 1.61129 17.6292 0.970538C16.0823 0.329789 14.4244 0 12.75 0C9.3685 0 6.12549 1.3433 3.73439 3.73439C1.3433 6.12549 0 9.3685 0 12.75C0 16.1315 1.3433 19.3746 3.73439 21.7656C6.12549 24.1567 9.3685 25.5 12.75 25.5C16.1315 25.5 19.3746 24.1567 21.7656 21.7656C24.1567 19.3746 25.5 16.1315 25.5 12.75C25.5 9.3685 24.1567 6.12549 21.7656 3.73439ZM20.7056 20.7056C19.1323 22.279 17.1277 23.3504 14.9455 23.7845C12.7632 24.2186 10.5012 23.9958 8.44552 23.1443C6.38986 22.2928 4.63286 20.8508 3.3967 19.0008C2.16054 17.1507 1.50074 14.9757 1.50074 12.7506C1.50074 10.5256 2.16054 8.35054 3.3967 6.50049C4.63286 4.65044 6.38986 3.2085 8.44552 2.35701C10.5012 1.50552 12.7632 1.28273 14.9455 1.7168C17.1277 2.15087 19.1323 3.22232 20.7056 4.79564C22.8124 6.90705 23.9956 9.76795 23.9956 12.7506C23.9956 15.7333 22.8124 18.5942 20.7056 20.7056Z" fill="white"/>
<path d="M20.2804 15.4776C20.4208 15.6183 20.4997 15.8089 20.4997 16.0076C20.4997 16.2064 20.4208 16.397 20.2804 16.5376L17.0244 19.7743C16.8823 19.9068 16.6942 19.9789 16.4999 19.9755C16.3056 19.972 16.1202 19.8933 15.9828 19.7559C15.8454 19.6185 15.7667 19.4331 15.7633 19.2388C15.7598 19.0445 15.832 18.8565 15.9644 18.7143L17.9391 16.7576H5.75037C5.55145 16.7576 5.36069 16.6786 5.22004 16.538C5.07938 16.3973 5.00037 16.2066 5.00037 16.0076C5.00037 15.8087 5.07938 15.618 5.22004 15.4773C5.36069 15.3367 5.55145 15.2576 5.75037 15.2576H17.9391L15.7449 13.2743C15.6124 13.1321 15.5403 12.9441 15.5437 12.7498C15.5471 12.5555 15.6259 12.3701 15.7633 12.2327C15.9007 12.0953 16.0861 12.0165 16.2804 12.0131C16.4747 12.0097 16.6627 12.0818 16.8049 12.2143L20.2804 15.4776Z" fill="white"/>
<path d="M5.21971 8.741C5.07926 8.88162 5.00037 9.07225 5.00037 9.271C5.00037 9.46975 5.07926 9.66037 5.21971 9.801L8.47563 13.0377C8.61781 13.1701 8.80586 13.2423 9.00016 13.2388C9.19446 13.2354 9.37984 13.1567 9.51726 13.0193C9.65467 12.8819 9.73338 12.6965 9.73681 12.5022C9.74024 12.3079 9.66812 12.1198 9.53564 11.9777L7.56096 10.021H19.7497C19.9486 10.021 20.1394 9.94198 20.28 9.80133C20.4207 9.66068 20.4997 9.46991 20.4997 9.271C20.4997 9.07209 20.4207 8.88132 20.28 8.74067C20.1394 8.60002 19.9486 8.521 19.7497 8.521H7.56096L9.75519 6.53765C9.88767 6.39548 9.95979 6.20743 9.95636 6.01313C9.95293 5.81883 9.87422 5.63344 9.73681 5.49603C9.5994 5.35862 9.41401 5.27991 9.21971 5.27648C9.02541 5.27305 8.83736 5.34517 8.69519 5.47765L5.21971 8.741Z" fill="white"/>
</svg>
